<?xml version="1.0" encoding="utf-8"?>
<!-- Generator: Adobe Illustrator 25.3.1, SVG Export Plug-In . SVG Version: 6.00 Build 0)  -->
<svg version="1.1" id="レイヤー_1" xmlns="http://www.w3.org/2000/svg" xmlns:xlink="http://www.w3.org/1999/xlink" x="0px"
	 y="0px" width="1561.766px" height="500px" viewBox="0 0 1561.766 500" style="enable-background:new 0 0 1561.766 500;"
	 xml:space="preserve">
<style type="text/css">
	.st0{fill:#F85245;}
	.st1{fill:#FEB718;}
	.st2{fill:#FFE621;}
	.st3{fill:#45B035;}
	.st4{fill:#068DDA;}
	.st5{fill:#5C4197;}
	.st6{fill:#0C2E5A;}
	.st7{fill:#FFFFFF;}
	.st8{fill:#004A41;}
	.st9{fill:#9BD1F0;}
	.st10{fill:none;stroke:#000000;stroke-miterlimit:10;}
</style>
<g>
	<g>
		<g>
			<polyline class="st0" points="18.485,254.193 51.534,440.855 291.434,302.125 18.485,254.193 291.434,302.125 			"/>
			<polyline class="st1" points="113.153,89.959 18.485,254.193 291.434,302.125 113.153,89.959 291.434,302.125 			"/>
			<polyline class="st2" points="291.24,25 113.153,89.959 291.434,302.125 291.24,25 291.434,302.125 			"/>
			<polyline class="st3" points="469.418,89.71 291.24,25 291.434,302.125 469.418,89.71 291.434,302.125 			"/>
			<polyline class="st4" points="564.315,253.812 469.418,89.71 291.434,302.125 564.315,253.812 291.434,302.125 			"/>
			<polyline class="st5" points="531.528,440.52 564.315,253.812 291.434,302.125 531.528,440.52 291.434,302.125 			"/>
		</g>
		<g>
			<path class="st6" d="M313.708,292.129c-0.172-3.864-0.26-7.478-0.26-10.684c0-29.793,13.099-69.518,13.099-89.379
				c0-13.965-1.615-35.365-14.868-49.457c-0.626-0.731-1.278-1.443-1.998-2.117c-0.24-0.222-0.414-0.485-0.661-0.701
				c0.005,0.04-0.004,0.115,0.002,0.156c-3.829-3.369-8.813-6.037-15.438-7.469c-21.735-4.7-45.813,20.03-43.53,42.797
				c-4.517,3.23-14.094,18.219-16.159,21.495c-5.041,7.993-9.576,22.711-10.499,27.834c6.013-3.655,37.159-23.463,44.575-22.566
				c-0.018-0.084-0.059-0.157-0.077-0.242c6.724,4.028,13.482,4.691,19.398,3.757c3.212,9.04,5.021,20.116,1.326,31.201
				c-2.875,8.628-14.03,24.078-23.895,45.077c-0.004,0-0.07-0.035-0.07-0.035c-24.972,42.158-51.698,81.323-51.698,131.182
				c0,35.618,14.008,62.021,77.567,62.021c52.555,0,70.131-28.444,70.131-57.631C360.654,382.402,318.252,332.971,313.708,292.129z"
				/>
			<path class="st6" d="M291.536,84.792c-6.909,0-12.508,5.601-12.508,12.51c0,14.192,12.508,22.815,12.508,22.815
				s12.508-8.622,12.508-22.815C304.043,90.393,298.444,84.792,291.536,84.792z"/>
			<path class="st6" d="M334.293,104.545c-4.552-5.193-12.455-5.713-17.65-1.159c-10.673,9.355-8.912,24.446-8.912,24.446
				s14.729,3.721,25.402-5.636C338.328,117.644,338.848,109.741,334.293,104.545z"/>
			<path class="st6" d="M266.428,103.386c-5.195-4.554-13.098-4.034-17.65,1.159c-4.554,5.197-4.036,13.099,1.161,17.651
				c10.671,9.357,25.4,5.636,25.4,5.636S277.101,112.741,266.428,103.386z"/>
		</g>
	</g>
	<g>
		<g>
			<path d="M730.072,163.232c0-2.451,0.829-5.317,2.875-6.949C800.848,92.871,872.435,56.054,943.211,56.054
				c40.106,0,72.416,15.547,72.416,49.497c0,36.817-57.69,89.594-147.689,127.637c9.824-2.046,18.818-3.272,26.596-3.272
				c21.27,0,34.78,8.183,34.78,24.956c0,43.36-91.64,103.906-189.823,103.906c-10.635,0-14.321-2.866-14.321-7.769
				c0-0.82,0.811-5.732,2.451-12.681c11.87-49.506,50.317-137.046,80.194-186.552c4.497-7.769,18.395-11.455,30.265-11.455
				c11.041,0,20.864,3.28,20.864,9.004c0,1.226-0.406,2.451-1.64,4.092c-15.538,22.496-32.716,52.769-47.866,83.862
				c99.418-39.268,153.421-91.631,153.421-129.268c0-15.547-14.321-25.37-31.922-25.37c-60.547,0-112.081,35.185-183.263,94.092
				c-1.64,1.226-3.28,1.64-4.903,1.64C736.632,178.373,730.072,170.19,730.072,163.232z M770.177,333.003
				c68.712-8.175,107.584-48.272,107.584-69.136c0-7.769-5.326-13.086-16.772-13.086c-10.635,0-26.596,4.497-47.866,15.952
				c-1.217,0.414-2.046,0.82-3.263,0.82c-4.515,0-8.183-4.092-10.653-9.004C786.527,285.966,775.892,312.553,770.177,333.003z"/>
		</g>
		<g>
			<path d="M1093.757,275.322c0,7.363-1.235,9.409-6.543,13.095c-53.598,38.457-101.464,65.864-129.294,65.864
				c-10.212,0-15.944-5.732-15.944-17.998c0-11.869,9.4-32.319,15.132-44.189c4.903-10.22,11.869-27.407,18.413-36.817
				c3.28-4.903,8.589-7.769,15.556-7.769c7.76,0,21.675,3.272,21.675,11.455c0,10.22-17.989,42.954-23.316,63.404
				c45.82-15.547,93.686-58.906,97.778-58.906C1090.883,263.462,1093.757,271.645,1093.757,275.322z M1050.389,178.779
				c0,18.413-19.63,38.862-36.825,38.862c-11.852,0-20.035-8.183-20.035-21.675c0-14.321,16.367-38.051,36.402-38.051
				C1040.989,157.915,1050.389,166.098,1050.389,178.779z"/>
		</g>
		<g>
			<path d="M1000.883,435.684c0-2.451,0.406-4.903,1.217-7.363c11.058-31.905,37.637-92.857,84.691-187.354
				c53.175-106.772,105.132-180.82,116.578-180.82c7.778,0,12.681,12.275,12.681,20.864c0,24.541-43.757,117.407-98.166,180
				c-4.092,5.723-9.418,15.547-15.556,27.407c3.28,0.406,6.543,0.406,10.229,0.406c21.27,0,49.912-8.183,64.638-19.224
				c5.732-4.092,5.309-4.497,6.949-4.497c2.452,0,3.686,4.903,3.686,10.635c0,6.138-1.234,13.086-3.686,14.727
				c-25.362,16.772-55.626,24.956-83.033,24.956c-4.092,0-7.778,0-11.87-0.414c-20.458,43.369-45.82,101.455-65.45,140.732
				c-1.64,3.677-4.092,5.317-6.543,5.317C1009.877,461.054,1000.883,447.959,1000.883,435.684z"/>
		</g>
		<g>
			<path d="M1151.817,290.463l13.51-9.824l-2.469-3.272c-4.497-5.317-6.12-11.041-6.12-17.178c0-15.141,12.681-30.273,30.265-30.273
				c14.727,0,22.504,6.958,22.504,17.998c0,3.272-0.829,6.958-2.046,10.635c7.354,2.46,13.086,4.912,18.818,7.363
				c7.354,3.272,9.806,7.778,9.806,13.095c0,14.321-18.818,33.545-18.818,45.82c42.152-16.367,81.411-47.46,98.183-60.961
				c0.829-0.811,2.046-1.226,2.875-1.226c3.668,0,5.714,6.543,5.714,13.095c0,4.497-1.217,8.589-3.263,10.635
				c-27.002,21.684-98.589,67.91-123.951,67.91c-10.229,0-15.961-5.732-15.961-17.998c0-10.644,14.321-28.642,18.818-39.277
				c-6.543-2.451-11.87-4.092-16.773-6.138c-13.086,9.004-27.407,14.321-35.996,14.321c-6.137,0-8.995-0.414-8.995-2.046
				C1137.92,301.098,1142.417,297.412,1151.817,290.463z"/>
		</g>
		<g>
			<path d="M1357.161,246.283c21.287,0,33.545,8.995,33.545,24.947c0,25.776-35.996,42.548-65.855,49.092
				c3.686,6.138,11.446,8.183,20.053,8.183c8.589,0,17.584-2.452,25.361-5.317c44.991-17.593,91.217-60.132,95.309-60.132
				c3.686,0,6.543,8.175,6.543,11.861c0,7.363-1.217,9.815-6.543,13.501c-53.58,38.457-94.903,65.864-136.226,65.864
				c-29.859,0-48.677-11.87-48.677-42.143C1280.671,276.962,1324.039,246.283,1357.161,246.283z M1357.99,274.096
				c0-4.092-2.452-7.363-6.967-7.363c-12.681,0-24.533,13.095-27.407,33.545C1348.166,295.366,1357.99,282.686,1357.99,274.096z"/>
		</g>
		<g>
			<path d="M1504.427,246.283c21.27,0,33.545,8.995,33.545,24.947c0,25.776-35.996,42.548-65.873,49.092
				c4.092,6.552,12.275,9.004,21.693,9.004c7.778,0,16.367-1.64,23.721-4.497c11.464-4.092,15.132-6.958,19.224-6.958
				c3.686,0,6.543,2.452,6.543,8.183c0,5.317-0.811,8.183-6.543,11.455c-13.898,8.183-39.683,16.772-60.124,16.772
				c-29.876,0-48.695-11.87-48.695-42.143C1427.919,276.962,1471.288,246.283,1504.427,246.283z M1505.239,274.096
				c0-4.092-2.452-7.363-6.949-7.363c-12.681,0-24.55,13.095-27.407,33.545C1495.433,295.366,1505.239,282.686,1505.239,274.096z"/>
		</g>
	</g>
</g>
</svg>
