<?xml version="1.0" encoding="utf-8"?>
<!-- Generator: Adobe Illustrator 25.3.1, SVG Export Plug-In . SVG Version: 6.00 Build 0)  -->
<svg version="1.1" id="レイヤー_1" xmlns="http://www.w3.org/2000/svg" xmlns:xlink="http://www.w3.org/1999/xlink" x="0px"
	 y="0px" width="500px" height="500px" viewBox="0 0 500 500" style="enable-background:new 0 0 500 500;" xml:space="preserve">
<style type="text/css">
	.st0{fill:#F85245;}
	.st1{fill:#FEB718;}
	.st2{fill:#FFE621;}
	.st3{fill:#45B035;}
	.st4{fill:#068DDA;}
	.st5{fill:#5C4197;}
	.st6{fill:#0C2E5A;}
	.st7{fill:#FFFFFF;}
	.st8{fill:#004A41;}
	.st9{fill:#9BD1F0;}
	.st10{fill:none;stroke:#000000;stroke-miterlimit:10;}
</style>
<g>
	<circle class="st6" cx="250" cy="250" r="225"/>
	<g>
		<g>
			<polyline class="st0" points="60.278,211.936 83.252,341.698 250.023,245.257 60.278,211.936 250.023,245.257 			"/>
			<polyline class="st1" points="126.088,97.765 60.278,211.936 250.023,245.257 126.088,97.765 250.023,245.257 			"/>
			<polyline class="st2" points="249.889,52.608 126.088,97.765 250.023,245.257 249.889,52.608 250.023,245.257 			"/>
			<polyline class="st3" points="373.753,97.592 249.889,52.608 250.023,245.257 373.753,97.592 250.023,245.257 			"/>
			<polyline class="st4" points="439.722,211.671 373.753,97.592 250.023,245.257 439.722,211.671 250.023,245.257 			"/>
			<polyline class="st5" points="416.93,341.465 439.722,211.671 250.023,245.257 416.93,341.465 250.023,245.257 			"/>
		</g>
		<g>
			<path class="st6" d="M265.504,238.286c-0.119-2.68-0.178-5.179-0.178-7.405c0-20.712,9.107-48.327,9.107-62.135
				c0-9.709-1.123-24.586-10.339-34.383c-0.433-0.506-0.884-0.999-1.384-1.467c-0.168-0.154-0.288-0.338-0.461-0.489
				c0.003,0.033,0.003,0.08,0.006,0.114c-2.661-2.345-6.129-4.201-10.736-5.197c-15.11-3.267-31.849,13.923-30.262,29.752
				c-3.139,2.244-9.797,12.665-11.234,14.942c-3.503,5.556-6.656,15.787-7.298,19.35c4.18-2.542,25.832-16.313,30.988-15.688
				c-0.001-0.006-0.003-0.012-0.005-0.019c4.653,2.769,9.362,3.169,13.456,2.526c2.219,6.273,3.462,13.946,0.902,21.627
				c-2.001,6.005-9.782,16.694-16.648,31.318c-0.001,0-0.013-0.007-0.013-0.007c-17.358,29.307-35.938,56.534-35.938,91.194
				c0,24.76,9.737,43.115,53.921,43.115c36.535,0,48.755-19.773,48.755-40.064C298.144,301.056,268.652,266.683,265.504,238.286z"/>
			<path class="st6" d="M258.789,102.869c0-4.802-3.893-8.695-8.696-8.695c-4.802,0-8.694,3.893-8.694,8.695
				c0,0.617,0.069,1.218,0.191,1.799c0.974,8.764,8.503,14.063,8.503,14.063s7.53-5.299,8.505-14.063
				C258.721,104.086,258.789,103.486,258.789,102.869z"/>
			<path class="st6" d="M279.819,107.906c-3.165-3.611-8.66-3.972-12.27-0.807c-0.465,0.407-0.871,0.855-1.228,1.33
				c-5.946,6.51-4.969,15.664-4.969,15.664s8.947,2.169,16.18-2.875c0.518-0.291,1.015-0.635,1.479-1.043
				C282.623,117.01,282.984,111.517,279.819,107.906z"/>
			<path class="st6" d="M233.868,108.43c-0.356-0.476-0.763-0.924-1.227-1.331c-3.612-3.165-9.105-2.804-12.27,0.807
				s-2.804,9.105,0.807,12.27c0.465,0.407,0.962,0.752,1.48,1.043c7.232,5.043,16.179,2.875,16.179,2.875
				S239.814,114.939,233.868,108.43z"/>
		</g>
	</g>
	<g>
		<g>
			<path class="st7" d="M144.136,348.44c0-0.681,0.23-1.477,0.799-1.93c18.861-17.615,38.747-27.841,58.407-27.841
				c11.141,0,20.116,4.319,20.116,13.749c0,10.227-16.025,24.887-41.025,35.455c2.729-0.568,5.227-0.909,7.388-0.909
				c5.908,0,9.661,2.273,9.661,6.932c0,12.044-25.456,28.863-52.729,28.863c-2.954,0-3.978-0.796-3.978-2.158
				c0-0.228,0.225-1.592,0.681-3.522c3.297-13.752,13.977-38.068,22.276-51.82c1.249-2.158,5.11-3.182,8.407-3.182
				c3.067,0,5.796,0.911,5.796,2.501c0,0.34-0.113,0.681-0.456,1.137c-4.316,6.249-9.088,14.658-13.296,23.295
				c27.616-10.908,42.617-25.453,42.617-35.908c0-4.319-3.978-7.047-8.867-7.047c-16.819,0-31.134,9.774-50.906,26.137
				c-0.456,0.34-0.911,0.456-1.362,0.456C145.959,352.646,144.136,350.373,144.136,348.44z M155.277,395.599
				c19.087-2.271,29.884-13.409,29.884-19.204c0-2.158-1.48-3.635-4.659-3.635c-2.954,0-7.388,1.249-13.296,4.431
				c-0.338,0.115-0.568,0.228-0.906,0.228c-1.254,0-2.273-1.137-2.959-2.501C159.818,382.533,156.864,389.918,155.277,395.599z"/>
		</g>
		<g>
			<path class="st7" d="M245.16,379.576c0,2.045-0.343,2.614-1.818,3.638c-14.888,10.682-28.184,18.296-35.915,18.296
				c-2.837,0-4.429-1.592-4.429-5c0-3.297,2.611-8.978,4.203-12.275c1.362-2.839,3.297-7.613,5.115-10.227
				c0.911-1.362,2.386-2.158,4.321-2.158c2.156,0,6.021,0.909,6.021,3.182c0,2.839-4.997,11.932-6.477,17.612
				c12.728-4.319,26.024-16.363,27.16-16.363C244.362,376.282,245.16,378.555,245.16,379.576z M233.114,352.759
				c0,5.115-5.453,10.795-10.229,10.795c-3.292,0-5.565-2.273-5.565-6.021c0-3.978,4.546-10.57,10.112-10.57
				C230.502,346.963,233.114,349.236,233.114,352.759z"/>
		</g>
		<g>
			<path class="st7" d="M219.362,424.121c0-0.681,0.113-1.362,0.338-2.045c3.072-8.862,10.455-25.794,23.525-52.043
				c14.771-29.659,29.203-50.228,32.383-50.228c2.16,0,3.522,3.41,3.522,5.796c0,6.817-12.155,32.613-27.268,50
				c-1.137,1.59-2.616,4.319-4.321,7.613c0.911,0.113,1.818,0.113,2.841,0.113c5.908,0,13.864-2.273,17.955-5.34
				c1.592-1.137,1.475-1.249,1.93-1.249c0.681,0,1.024,1.362,1.024,2.954c0,1.705-0.343,3.635-1.024,4.091
				c-7.045,4.659-15.452,6.932-23.065,6.932c-1.137,0-2.16,0-3.297-0.115c-5.683,12.047-12.728,28.182-18.18,39.092
				c-0.456,1.021-1.137,1.477-1.818,1.477C221.86,431.168,219.362,427.531,219.362,424.121z"/>
		</g>
		<g>
			<path class="st7" d="M261.288,383.782l3.753-2.729l-0.686-0.909c-1.249-1.477-1.7-3.067-1.7-4.772
				c0-4.206,3.522-8.409,8.407-8.409c4.091,0,6.251,1.933,6.251,5c0,0.909-0.23,1.933-0.568,2.954
				c2.043,0.683,3.635,1.364,5.227,2.045c2.043,0.909,2.724,2.16,2.724,3.638c0,3.978-5.227,9.318-5.227,12.728
				c11.709-4.546,22.614-13.183,27.273-16.934c0.23-0.225,0.568-0.34,0.799-0.34c1.019,0,1.587,1.818,1.587,3.638
				c0,1.249-0.338,2.386-0.906,2.954c-7.5,6.023-27.386,18.864-34.431,18.864c-2.841,0-4.434-1.592-4.434-5
				c0-2.957,3.978-7.956,5.227-10.91c-1.818-0.681-3.297-1.137-4.659-1.705c-3.635,2.501-7.613,3.978-9.999,3.978
				c-1.705,0-2.499-0.115-2.499-0.568C257.428,386.736,258.677,385.712,261.288,383.782z"/>
		</g>
		<g>
			<path class="st7" d="M318.328,371.51c5.913,0,9.318,2.499,9.318,6.93c0,7.16-9.999,11.819-18.293,13.637
				c1.024,1.705,3.18,2.273,5.57,2.273c2.386,0,4.884-0.681,7.045-1.477c12.498-4.887,25.338-16.703,26.475-16.703
				c1.024,0,1.818,2.271,1.818,3.295c0,2.045-0.338,2.726-1.818,3.75c-14.883,10.682-26.362,18.296-37.84,18.296
				c-8.294,0-13.521-3.297-13.521-11.706C297.081,380.032,309.128,371.51,318.328,371.51z M318.558,379.236
				c0-1.137-0.681-2.045-1.935-2.045c-3.522,0-6.815,3.638-7.613,9.318C315.83,385.144,318.558,381.622,318.558,379.236z"/>
		</g>
		<g>
			<path class="st7" d="M359.235,371.51c5.908,0,9.318,2.499,9.318,6.93c0,7.16-9.999,11.819-18.298,13.637
				c1.137,1.82,3.41,2.501,6.026,2.501c2.16,0,4.546-0.456,6.589-1.249c3.184-1.137,4.203-1.933,5.34-1.933
				c1.024,0,1.818,0.681,1.818,2.273c0,1.477-0.225,2.273-1.818,3.182c-3.86,2.273-11.023,4.659-16.701,4.659
				c-8.299,0-13.526-3.297-13.526-11.706C337.983,380.032,350.03,371.51,359.235,371.51z M359.461,379.236
				c0-1.137-0.681-2.045-1.93-2.045c-3.522,0-6.82,3.638-7.613,9.318C356.737,385.144,359.461,381.622,359.461,379.236z"/>
		</g>
	</g>
</g>
</svg>
